<?xml version="1.0" encoding="utf-8"?>
<svg version="1.1" id="kettle" xmlns="http://www.w3.org/2000/svg" x="0px" y="0px"
     viewBox="0 0 411.99 282.717" style="enable-background:new 0 0 411.99 282.717;" xml:space="preserve">
	<g>
		<g>
			<g>
				<g>
					<g>
						<path style="fill:#9FA1A4;" d="M173.123,137.983c-0.18-1.055-4.354-26.173,0.142-54.899
							c6.015-38.433,24.917-64.471,54.664-75.302l0.402-0.146h15.645v4.851h-14.786c-28.119,10.402-45.316,34.364-51.114,71.229
							c-4.399,27.959-0.214,53.204-0.171,53.454L173.123,137.983z"/>
						<path style="fill:#5E2C00;" d="M173.122,138.953c-0.464,0-0.874-0.334-0.955-0.807c-0.181-1.061-4.381-26.324,0.14-55.212
							c6.072-38.803,25.191-65.105,55.29-76.064L228,6.724c0.106-0.038,0.218-0.058,0.331-0.058h15.645
							c0.536,0,0.97,0.434,0.97,0.97v4.851c0,0.536-0.434,0.97-0.97,0.97h-14.612c-27.668,10.305-44.602,33.992-50.331,70.409
							c-4.376,27.82-0.216,52.891-0.173,53.141c0.09,0.527-0.265,1.028-0.793,1.119l-4.781,0.814
							C173.231,138.949,173.176,138.953,173.122,138.953z M228.501,8.606l-0.242,0.089c-29.394,10.702-48.08,36.477-54.036,74.539
							c-4.039,25.813-1.045,48.673-0.296,53.63l2.872-0.49c-0.715-4.888-3.626-27.743,0.317-52.809
							c5.857-37.234,23.264-61.454,51.736-71.988c0.108-0.039,0.222-0.061,0.337-0.061h13.816v-2.91H228.501z"/>
					</g>
					<g>
						<path style="fill:#9FA1A4;" d="M335.218,137.983l-4.781-0.814c0.042-0.25,4.227-25.495-0.171-53.454
							c-5.799-36.864-22.996-60.826-51.114-71.229h-14.786V7.636h15.645l0.402,0.146c29.747,10.831,48.649,36.869,54.664,75.302
							C339.571,111.811,335.398,136.929,335.218,137.983z"/>
						<path style="fill:#5E2C00;" d="M335.219,138.953c-0.054,0-0.109-0.004-0.164-0.014l-4.781-0.814
							c-0.528-0.091-0.883-0.592-0.793-1.119c0.043-0.25,4.203-25.32-0.173-53.141c-5.729-36.417-22.663-60.104-50.33-70.409
							h-14.612c-0.536,0-0.97-0.434-0.97-0.97V7.636c0-0.536,0.435-0.97,0.97-0.97h15.645c0.113,0,0.225,0.02,0.331,0.058
							l0.402,0.146c30.1,10.96,49.219,37.263,55.292,76.065c4.521,28.888,0.321,54.151,0.14,55.212
							C336.094,138.619,335.683,138.953,335.219,138.953z M331.541,136.373l2.873,0.49c0.749-4.957,3.743-27.817-0.296-53.63
							c-5.957-38.063-24.643-63.837-54.038-74.54l-0.241-0.088h-14.504v2.91h13.816c0.115,0,0.229,0.021,0.336,0.061
							c28.472,10.534,45.878,34.754,51.736,71.988C335.167,108.63,332.257,131.485,331.541,136.373z"/>
					</g>
				</g>
				<g>
					<rect x="227.992" y="5.211" style="fill:#424647;" width="48.219" height="9.215"/>
					<path style="fill:#5E2C00;" d="M276.211,15.396h-48.219c-0.536,0-0.97-0.434-0.97-0.97V5.211c0-0.536,0.435-0.97,0.97-0.97
						h48.219c0.536,0,0.97,0.434,0.97,0.97v9.215C277.18,14.962,276.746,15.396,276.211,15.396z M228.962,13.456h46.278V6.181
						h-46.278V13.456z"/>
				</g>
			</g>
			<g>
				<g>
					<polygon style="fill:#424647;" points="256.595,84.683 251.745,84.683 235.498,84.683 245.683,101.415 251.745,101.415
						256.595,101.415 262.658,101.415 272.843,84.683 					"/>
					<path style="fill:#5E2C00;" d="M262.658,102.385h-16.975c-0.338,0-0.652-0.176-0.828-0.466l-10.185-16.732
						c-0.182-0.299-0.189-0.674-0.017-0.979c0.171-0.305,0.495-0.494,0.846-0.494h37.345c0.351,0,0.674,0.189,0.846,0.494
						c0.172,0.306,0.165,0.681-0.017,0.979l-10.185,16.732C263.311,102.209,262.997,102.385,262.658,102.385z M246.228,100.445
						h15.885l9.004-14.793h-33.893L246.228,100.445z"/>
				</g>
				<g>
					<path style="fill:#9FA1A4;" d="M324.116,121.14H184.225c-8.954,7.701-16.506,17.869-20.212,31.256
						c-13.228,47.797-11.449,85.212,26.138,92.693c19.327,3.848,44.307,4.303,64.02,3.837c19.712,0.466,44.693,0.011,64.02-3.837
						c37.587-7.481,39.366-44.896,26.138-92.693C340.623,139.009,333.069,128.841,324.116,121.14z"/>
					<path style="fill:#5E2C00;" d="M266.518,250.045c-0.001,0,0,0-0.001,0c-4.008,0-8.17-0.05-12.369-0.149
						c-4.154,0.1-8.315,0.149-12.323,0.149c-21.067,0-38.517-1.348-51.863-4.005c-12.463-2.48-21.652-8.396-27.311-17.584
						c-9.609-15.596-9.469-40.561,0.428-76.319c3.396-12.27,10.297-22.945,20.514-31.732c0.176-0.151,0.4-0.235,0.632-0.235h139.891
						c0.233,0,0.457,0.084,0.632,0.235c10.217,8.787,17.119,19.463,20.515,31.732c9.897,35.759,10.037,60.724,0.428,76.319
						c-5.66,9.188-14.849,15.104-27.311,17.584C305.034,248.697,287.583,250.045,266.518,250.045z M254.148,247.955
						c4.23,0.1,8.376,0.15,12.369,0.15c20.94,0,38.262-1.335,51.484-3.968c11.912-2.371,20.673-7.99,26.039-16.699
						c9.31-15.11,9.099-39.574-0.646-74.785c-3.261-11.781-9.868-22.057-19.638-30.544H184.585
						c-9.77,8.487-16.376,18.763-19.638,30.544c-9.745,35.211-9.956,59.675-0.646,74.785c5.366,8.709,14.126,14.328,26.039,16.699
						c13.222,2.633,30.543,3.968,51.484,3.968C245.817,248.105,249.963,248.055,254.148,247.955z"/>
				</g>
				<g>
					<path style="fill:#9FA1A4;" d="M324.116,121.14H184.225c-8.954,7.701-16.506,17.869-20.212,31.256
						c-13.228,47.797-11.449,85.212,26.138,92.693c19.327,3.848,44.307,4.303,64.02,3.837c19.712,0.466,44.693,0.011,64.02-3.837
						c37.587-7.481,39.366-44.896,26.138-92.693C340.623,139.009,333.069,128.841,324.116,121.14z"/>
					<path style="fill:#5E2C00;" d="M266.518,250.045c-0.001,0,0,0-0.001,0c-4.008,0-8.17-0.05-12.369-0.149
						c-4.154,0.1-8.315,0.149-12.323,0.149c-21.067,0-38.517-1.348-51.863-4.005c-12.463-2.48-21.652-8.396-27.311-17.584
						c-9.609-15.596-9.469-40.561,0.428-76.319c3.396-12.27,10.297-22.945,20.514-31.732c0.176-0.151,0.4-0.235,0.632-0.235h139.891
						c0.233,0,0.457,0.084,0.632,0.235c10.217,8.787,17.119,19.463,20.515,31.732c9.897,35.759,10.037,60.724,0.428,76.319
						c-5.66,9.188-14.849,15.104-27.311,17.584C305.034,248.697,287.583,250.045,266.518,250.045z M254.148,247.955
						c4.23,0.1,8.376,0.15,12.369,0.15c20.94,0,38.262-1.335,51.484-3.968c11.912-2.371,20.673-7.99,26.039-16.699
						c9.31-15.11,9.099-39.574-0.646-74.785c-3.261-11.781-9.868-22.057-19.638-30.544H184.585
						c-9.77,8.487-16.376,18.763-19.638,30.544c-9.745,35.211-9.956,59.675-0.646,74.785c5.366,8.709,14.126,14.328,26.039,16.699
						c13.222,2.633,30.543,3.968,51.484,3.968C245.817,248.105,249.963,248.055,254.148,247.955z"/>
				</g>
				<g>
					<path style="fill:#9FA1A4;" d="M303.735,101.724c-7.917-1.847-16.613-1.987-23.783-2.362
						c-19.757-1.032-38.997-1.405-58.716,0.715c-5.528,0.595-11.044,1.316-16.541,2.148c-21.34,3.233-20.38,18.915-20.38,18.915
						s139.543,0,139.683,0c0.191,0-0.483-4.028-0.543-4.256c-0.792-3.02-2.475-5.706-4.74-7.841
						C314.69,105.248,309.413,103.047,303.735,101.724z"/>
					<path style="fill:#5E2C00;" d="M323.998,122.109H184.315c-0.512,0-0.937-0.399-0.968-0.91
						c-0.011-0.166-0.76-16.606,21.203-19.934c5.611-0.85,11.19-1.574,16.582-2.154c9.692-1.042,19.85-1.549,31.055-1.549
						c8.144,0,16.982,0.265,27.816,0.83c1.066,0.056,2.166,0.107,3.292,0.158c6.485,0.298,13.836,0.637,20.66,2.229
						c6.621,1.542,11.666,4.014,15.425,7.558c2.465,2.322,4.198,5.193,5.014,8.301c0.011,0.042,0.974,4.322,0.384,5.087
						C324.595,121.962,324.299,122.109,323.998,122.109z M185.3,120.169h137.689c-0.134-1.068-0.411-2.765-0.476-3.057
						c-0.719-2.738-2.264-5.29-4.463-7.364c-3.502-3.301-8.256-5.617-14.535-7.079c-6.65-1.552-13.907-1.886-20.309-2.18
						c-1.13-0.053-2.234-0.102-3.305-0.158c-10.799-0.565-19.605-0.828-27.715-0.828c-11.135,0-21.226,0.503-30.847,1.537
						c-5.365,0.578-10.916,1.299-16.5,2.143c-8.418,1.276-14.467,4.799-17.492,10.187
						C185.762,116.196,185.384,118.835,185.3,120.169z"/>
				</g>
				<path style="opacity:0.5;fill:#9FA1A4;" d="M323.456,116.884c-0.792-3.02-2.475-5.706-4.74-7.841
					c-4.026-3.795-9.302-5.996-14.98-7.319c-7.917-1.847-16.613-1.987-23.783-2.362c-8.006-0.418-15.927-0.722-23.83-0.801
					c4.988,0.748,10.358,0.863,15.016,2.971c4.585,2.074,7.681,5.92,9.941,10.332c1.531,2.988,2.681,6.103,3.654,9.276h39.264
					C324.189,121.14,323.515,117.111,323.456,116.884z"/>
				<path style="fill:#9FA1A4;" d="M221.315,104.015c0,0-20.394,2.118-24.516,5.822c-4.122,3.703-6.063,7.099-6.063,7.099h13.822
					l3.395-7.099L221.315,104.015z"/>
				<path style="opacity:0.5;fill:#9FA1A4;" d="M344.328,152.395c-3.705-13.387-11.258-23.555-20.212-31.256H184.225
					c-8.954,7.701-16.506,17.869-20.212,31.256c-13.228,47.797-11.449,85.212,26.138,92.693c19.327,3.848,44.307,4.303,64.02,3.837
					c19.712,0.466,44.693,0.011,64.02-3.837C355.777,237.607,357.556,200.192,344.328,152.395z M210.511,226.261
					c-40.608-2.709-48.632-27.683-43.783-58.737c4.85-31.056,24.008-40.726,24.008-40.726h91.746h0.97c0,0,9.053,5.82,15.52,45.944
					C305.439,212.867,251.119,228.972,210.511,226.261z"/>
			</g>
			<g>
				<path style="fill:#9FA1A4;" d="M166.951,148.51c0,0-18.585-2.435-22.949-22.528c-4.279-19.697-21.599-37.784-26.392-39.404
					c-1.771,4.966-5.231,8.91-9.177,12.436c4.128,5,7.045,11.766,6.27,20.771c-2.226,25.874-10.956,80.444,44.819,90.747
					C159.521,210.531,179.73,193.872,166.951,148.51z"/>
				<path style="fill:#5E2C00;" d="M159.521,211.501c-0.059,0-0.118-0.006-0.176-0.017c-53.354-9.855-48.606-59.987-46.057-86.92
					c0.162-1.711,0.316-3.337,0.448-4.863c0.658-7.656-1.377-14.41-6.052-20.07c-0.332-0.402-0.287-0.994,0.102-1.342
					c4.685-4.186,7.433-7.898,8.909-12.038c0.178-0.498,0.721-0.763,1.225-0.593c5.081,1.718,22.619,19.815,27.029,40.118
					c4.163,19.161,21.397,21.674,22.128,21.771c0.384,0.052,0.702,0.326,0.807,0.698c12.804,45.45-6.901,62.337-7.746,63.033
					C159.963,211.424,159.745,211.501,159.521,211.501z M109.76,99.119c4.598,5.915,6.585,12.891,5.909,20.749
					c-0.132,1.53-0.286,3.162-0.449,4.879c-1.299,13.718-3.078,32.504,1.947,49.167c5.934,19.676,19.693,31.316,42.056,35.574
					c2.481-2.4,18.18-19.595,6.957-60.131c-3.391-0.68-19.135-4.795-23.127-23.17c-3.968-18.264-19.318-35.206-24.906-38.302
					C116.573,91.747,113.937,95.274,109.76,99.119z"/>
			</g>
			<path style="opacity:0.5;fill:#9FA1A4;" d="M136.965,126.751c1.247,11.373,2.361,23.666,12.419,30.979
				c4.922,3.578,13.799,6.566,20.702,5.053c-0.678-4.407-1.692-9.152-3.135-14.273c0,0-18.585-2.435-22.949-22.528
				c-2.222-10.229-7.96-20.018-13.635-27.296C134.485,107.231,135.967,117.649,136.965,126.751z"/>
			<path style="opacity:0.5;fill:#9FA1A4;" d="M156.058,191.061c-11.167-0.968-20.988-6.649-26.158-16.803
				c-4.947-9.717-6.338-21.13-6.42-31.921c-0.12-15.671,2.673-37.426-9.486-49.22c-1.615,2.132-3.52,4.071-5.561,5.896
				c4.128,5,7.045,11.766,6.27,20.771c-2.226,25.874-10.956,80.444,44.819,90.747c0,0,7.451-6.167,10.44-21.168
				C165.521,190.901,160.732,191.466,156.058,191.061z"/>
			<path style="fill:#9FA1A4;" d="M138.205,176.24c-3.484-6.224-7.261-12.709-9.129-19.645c-1.783-6.624-1.722-13.092-1.155-19.886
				c0.486-5.831,0.293-11.698-0.113-17.529c-0.403-5.786-2.764-11.415-5.128-16.655c-0.192-0.428-0.894,0.302-0.755,0.667
				c5.059,13.313,4.596,27.014,3.681,40.99c-0.763,11.66,4.209,24.132,11.887,32.804
				C137.764,177.291,138.376,176.547,138.205,176.24z"/>
			<path style="fill:#9FA1A4;" d="M188.095,161.872c-3.145-1.622-5.96,0.444-7.76,3.114c-0.128,0.109-0.27,0.232-0.444,0.377
				c-0.802,0.677-1.233,1.116-1.566,2.056c-0.775,2.183-1.233,3.37-0.319,5.557c0.448,1.068,0.425,1.211,1.535,1.601
				c0.843,0.294,2.059,0.371,2.926,0.225c2.038-0.341,3.557-2.213,4.857-3.64C189.558,168.713,191.927,163.846,188.095,161.872z"/>
			<path style="fill:#9FA1A4;" d="M194.175,136.22c-4.567-2.354-8.659,0.646-11.272,4.524c-0.186,0.159-0.392,0.335-0.645,0.547
				c-1.165,0.983-1.791,1.622-2.275,2.986c-1.126,3.171-1.792,4.896-0.463,8.072c0.65,1.552,0.617,1.758,2.229,2.323
				c1.224,0.43,2.991,0.541,4.251,0.329c2.96-0.496,5.166-3.213,7.055-5.285C196.3,146.156,199.742,139.088,194.175,136.22z"/>
		</g>
		<g>
			<g>
				<path style="opacity:0.5;fill:#C7D5DB;" d="M98.655,70.25c-0.073-1.182-0.195-2.222-0.346-3.021
					c-0.99-5.226-5.345-12.381-10.502-10.051c1.001-3.7,0.771-7.28-1.995-10.67c-1.631-1.999-3.285-2.741-4.915-2.743
					c-0.379-12.017-9.098-23.839-19.037-29.877c-8.872-5.39-17-4.208-24.65,1.821C24.782,5.588,8.667,19.276,6.677,34.189
					c-1.387,10.38-0.147,20.313,7.301,28.178c4.939,5.216,13.231,8.766,19.628,5.695c1.894,4.55,5.42,8.457,9.594,10.888
					c6.039,3.514,12.251,1.396,17.183-2.402c0.49,0.809,1.063,1.595,1.748,2.342c3.371,3.675,9.042,3.973,13.362,1.911
					c1.391,6.286,7.044,13.572,13.985,13.627C101.253,94.52,109.588,76.457,98.655,70.25z"/>
				<path style="fill:#FFFFFF;" d="M18.055,21.43c0.101-0.194,0.145-1.144-0.246-0.682c-5.831,6.883-8.666,14.569-8.521,23.759
					c0.087,5.604,2.775,10.316,6.223,14.505c4.375,5.324,9.41,5.301,15.554,4.104c0.465-0.095,1.094-1.679,0.488-1.796
					c-8.09-1.58-13.805-5.583-17.703-13.054C9.153,39.267,14.044,29.429,18.055,21.43z"/>
				<path style="fill:#FFFFFF;" d="M49.817,43.666C41.932,44.7,33.669,53.84,34.854,62.307c0.689,4.916,2.534,9.946,6.501,13.103
					c4.212,3.346,11.801,2.191,16.25,0.337c0.446-0.188,1.126-1.879,0.368-1.804C51.743,74.555,46.712,74.439,42,69.784
					c-3.712-3.672-5.056-10.746-2.719-15.4c2.253-4.49,6.252-6.735,10.325-9.18C49.906,45.026,50.459,43.581,49.817,43.666z"/>
				<path style="fill:#FFFFFF;" d="M73.182,77.671c-2.515-0.218-5.125-0.947-7.079-2.584c-1.016-0.849-2.1-3.025-2.298-4.321
					c-0.148-0.953,0.107-1.991,0-2.963c-0.047-0.439-0.4,0.198-0.422,0.355c-0.194,1.54-0.789,2.868-0.885,4.475
					c-0.091,1.58,0.815,3.612,1.603,4.966c1.84,3.165,5.778,3.368,8.698,1.913C73.132,79.352,73.807,77.728,73.182,77.671z"/>
			</g>
		</g>
	</g>
</svg>